# xmcd
#
# Track frame offsets: 
#        150
#        20980
#        34062
#        55935
#        79014
#        94730
#        118090
#        135707
#        155198
#        172724
#        186934
#
# Disc length: 2782 seconds
#
# Revision: 0
# Processed by: cddbd v1.5.2PL0 Copyright (c) Steve Scherf et al.
# Submitted via: ExactAudioCopy v1.3
#
DISCID=920adc0b
DTITLE=Rory Gallagher - JINX
DYEAR=1982
DGENRE=Blues Rock
TTITLE0=Signals
TTITLE1=The Devil Made Me Do It
TTITLE2=Double Vision
TTITLE3=Easy Come, Easy Go
TTITLE4=Big Guns
TTITLE5=Jinxed
TTITLE6=Bourbon
TTITLE7=Ride On Red, Ride On
TTITLE8=Loose Talk
TTITLE9=Nothin' But The Devil
TTITLE10=Lonely Mile
EXTD=
EXTT0=
EXTT1=
EXTT2=
EXTT3=
EXTT4=
EXTT5=
EXTT6=
EXTT7=
EXTT8=
EXTT9=
EXTT10=
PLAYORDER=
